<svg version="1.1" id="Layer_1" xmlns="http://www.w3.org/2000/svg" xmlns:xlink="http://www.w3.org/1999/xlink" x="0px" y="0px"
	 width="100%" viewBox="0 0 104 110" enable-background="new 0 0 104 110" xml:space="preserve">
<path fill="#FFFEFE" opacity="1.000000" stroke="none" 
	d="
M74.000000,111.000000 
	C49.333332,111.000000 25.166666,111.000000 1.000000,111.000000 
	C1.000000,74.333336 1.000000,37.666668 1.000000,1.000000 
	C35.666668,1.000000 70.333336,1.000000 105.000000,1.000000 
	C105.000000,37.666668 105.000000,74.333336 105.000000,111.000000 
	C94.833336,111.000000 84.666664,111.000000 74.000000,111.000000 
M76.704964,83.081352 
	C76.882492,82.783913 77.060028,82.486481 77.285034,82.198448 
	C77.285034,82.198448 77.326958,82.223053 77.916443,81.957397 
	C79.039352,80.438705 80.162262,78.920013 81.271408,77.328064 
	C81.271408,77.328064 81.232338,77.264587 81.777840,77.137375 
	C81.933311,76.811775 82.088783,76.486176 82.143234,76.209190 
	C82.143234,76.209190 82.249283,76.245583 82.782532,76.023895 
	C83.275063,75.015083 83.767593,74.006264 84.765381,72.415184 
	C84.977112,71.676529 85.188850,70.937874 85.886421,69.662689 
	C86.238922,64.111832 86.591415,58.560966 87.024529,52.219608 
	C85.414055,48.451347 83.803581,44.683086 81.976646,40.401714 
	C81.694572,40.165749 81.412491,39.929783 81.047279,39.329659 
	C81.047279,39.329659 80.833748,39.023178 80.795456,38.410915 
	C80.205360,37.922478 79.615257,37.434040 78.784439,36.426174 
	C78.208290,35.942131 77.632133,35.458088 76.922058,34.368526 
	C76.270592,33.968407 75.619133,33.568287 74.655769,32.949059 
	C74.655769,32.949059 74.287666,32.850079 74.016045,32.228874 
	C72.465630,31.422277 70.915215,30.615681 68.862984,29.257154 
	C65.576897,28.490425 62.290813,27.723694 58.150150,26.828991 
	C56.427540,26.898312 54.704933,26.967632 52.175507,26.986801 
	C49.742847,27.959227 47.310192,28.931654 44.167652,29.915335 
	C43.097168,30.235451 42.026680,30.555567 40.302959,30.988581 
	C39.079029,31.916172 37.855099,32.843761 35.954124,33.879795 
	C34.621269,36.214283 33.288418,38.548767 31.266848,41.099380 
	C30.326265,41.709309 28.973293,42.097740 28.508448,42.963192 
	C23.469307,52.345093 23.283501,68.134743 30.267065,76.230919 
	C30.267065,76.230919 30.632204,76.221474 30.877607,76.875870 
	C33.620136,79.700203 36.362667,82.524529 39.468372,85.880714 
	C42.984623,87.253128 46.500874,88.625549 50.270348,90.254860 
	C50.612972,90.214211 50.955597,90.173569 51.643646,90.342384 
	C51.643646,90.342384 52.045704,90.303055 52.781010,90.624878 
	C56.518597,90.343758 60.256187,90.062645 64.715996,89.764885 
	C67.829887,88.181961 70.943771,86.599037 74.512062,84.912933 
	C74.810875,84.759346 74.991608,84.517509 75.588242,84.010117 
	C75.793388,83.713081 75.998535,83.416046 76.112274,83.165565 
	C76.112274,83.165565 76.190697,83.231697 76.704964,83.081352 
z"/>
<path fill="#F6A556" opacity="1.000000" stroke="none" 
	d="
M86.943909,53.010105 
	C86.591415,58.560966 86.238922,64.111832 85.516838,69.878944 
	C85.147255,70.095200 84.907639,69.966812 84.936760,69.558815 
	C84.420853,66.191170 88.826683,62.000202 82.869751,60.227623 
	C81.852417,61.929752 80.933395,63.467384 79.814209,65.006470 
	C79.614029,65.007927 79.213661,65.008751 79.177139,64.596237 
	C78.728630,59.131516 78.316650,54.079304 78.254868,49.065907 
	C80.114014,51.907997 82.530304,51.603436 85.273514,51.142166 
	C85.986786,51.870888 86.465347,52.440498 86.943909,53.010105 
z"/>
<path fill="#38436C" opacity="1.000000" stroke="none" 
	d="
M29.991789,75.990654 
	C23.283501,68.134743 23.469307,52.345093 28.508448,42.963192 
	C28.973293,42.097740 30.326265,41.709309 31.623810,41.401176 
	C31.653753,43.800083 31.326735,45.897194 30.713848,48.207756 
	C27.831205,53.681606 25.677092,59.006538 28.012911,65.375465 
	C28.356253,67.176102 28.699942,68.587318 29.080254,70.377548 
	C29.408512,72.501259 29.700151,74.245956 29.991789,75.990654 
z"/>
<path fill="#F7B766" opacity="1.000000" stroke="none" 
	d="
M86.984222,52.614857 
	C86.465347,52.440498 85.986786,51.870888 85.221878,50.775230 
	C84.525978,49.021725 84.242043,47.733669 83.684372,46.577667 
	C81.641815,42.343674 79.698471,41.987926 75.674683,44.956879 
	C75.170197,44.673328 75.006859,44.405785 74.973862,43.693436 
	C74.159683,41.603329 73.552582,39.727974 72.456451,38.204464 
	C70.419548,35.373394 71.216797,33.793251 74.287666,32.850079 
	C74.287666,32.850079 74.655769,32.949059 74.865646,33.366447 
	C75.735687,34.180576 76.395836,34.577309 77.055984,34.974045 
	C77.632133,35.458088 78.208290,35.942131 78.924614,37.002441 
	C79.654442,38.060200 80.244095,38.541687 80.833748,39.023178 
	C80.833748,39.023178 81.047279,39.329659 81.146667,39.803932 
	C81.561737,40.490414 81.877419,40.702621 82.193100,40.914825 
	C83.803581,44.683086 85.414055,48.451347 86.984222,52.614857 
z"/>
<path fill="#455E87" opacity="1.000000" stroke="none" 
	d="
M30.999714,47.994308 
	C31.326735,45.897194 31.653753,43.800083 31.968168,41.293114 
	C33.288418,38.548767 34.621269,36.214283 36.639317,34.096600 
	C38.190788,36.346043 39.057068,38.378677 39.756950,40.723072 
	C37.964020,43.419651 36.337486,45.804474 34.246777,48.138512 
	C32.854973,48.056587 31.927343,48.025448 30.999714,47.994308 
z"/>
<path fill="#915674" opacity="1.000000" stroke="none" 
	d="
M52.045704,90.303055 
	C52.045704,90.303055 51.643646,90.342384 51.152370,90.178490 
	C50.446442,90.009048 50.231785,90.003510 50.017124,89.997963 
	C46.500874,88.625549 42.984623,87.253128 39.266052,85.220963 
	C39.044769,84.039513 39.025810,83.517815 39.007225,82.536842 
	C39.089901,80.222649 39.172199,78.367737 39.557846,76.682251 
	C42.695923,78.848846 45.530651,80.846008 47.987350,82.888077 
	C47.014084,83.813461 46.418854,84.693932 45.823624,85.574409 
	C47.882500,86.714951 49.941376,87.855492 52.010201,89.322838 
	C52.028664,89.867447 52.037186,90.085251 52.045704,90.303055 
z"/>
<path fill="#C8B28D" opacity="1.000000" stroke="none" 
	d="
M59.004726,26.956964 
	C62.290813,27.723694 65.576897,28.490425 68.715904,29.592710 
	C63.693375,30.877682 68.588608,34.337383 66.614662,36.058594 
	C64.163795,35.272209 62.074959,34.552502 59.983047,33.447075 
	C59.654888,31.026564 59.329807,28.991764 59.004726,26.956964 
z"/>
<path fill="#7C969A" opacity="1.000000" stroke="none" 
	d="
M44.877533,29.904079 
	C47.310192,28.931654 49.742847,27.959227 52.584511,27.393806 
	C53.319714,29.766634 53.645905,31.732460 53.583191,33.797974 
	C50.839535,34.334721 48.484787,34.771778 46.103481,34.797447 
	C45.677128,32.892063 45.277332,31.398071 44.877533,29.904079 
z"/>
<path fill="#E9BB82" opacity="1.000000" stroke="none" 
	d="
M66.976692,36.125263 
	C68.588608,34.337383 63.693375,30.877682 68.966812,29.868675 
	C70.915215,30.615681 72.465630,31.422277 74.151855,32.539474 
	C71.216797,33.793251 70.419548,35.373394 72.456451,38.204464 
	C73.552582,39.727974 74.159683,41.603329 74.698074,43.518803 
	C72.940781,42.113155 71.472862,40.508629 69.880676,38.701481 
	C69.542587,38.247334 69.274696,38.084953 68.977020,38.004299 
	C69.001289,37.996880 68.989525,38.046253 68.886230,37.813576 
	C68.510086,37.388702 68.237221,37.196510 67.763626,36.899933 
	C67.292938,36.637302 67.097542,36.413876 66.976692,36.125263 
z"/>
<path fill="#6A4C75" opacity="1.000000" stroke="none" 
	d="
M39.006851,82.996124 
	C39.025810,83.517815 39.044769,84.039513 39.084465,84.955032 
	C36.362667,82.524529 33.620136,79.700203 31.068422,76.357651 
	C32.642670,74.183678 34.026104,72.527908 35.628174,71.112015 
	C36.574940,72.564293 37.303062,73.776688 37.668453,75.032349 
	C33.868477,78.183029 34.055828,79.055328 39.006851,82.996124 
z"/>
<path fill="#9DA496" opacity="1.000000" stroke="none" 
	d="
M53.972099,33.698284 
	C53.645905,31.732460 53.319714,29.766634 52.987923,27.418880 
	C54.704933,26.967632 56.427540,26.898312 58.577438,26.892979 
	C59.329807,28.991764 59.654888,31.026564 59.553299,33.479351 
	C57.408451,33.830986 55.690277,33.764637 53.972099,33.698284 
z"/>
<path fill="#B3646F" opacity="1.000000" stroke="none" 
	d="
M52.413357,90.463966 
	C52.037186,90.085251 52.028664,89.867447 52.014961,88.918594 
	C51.712315,84.039192 54.781540,85.187820 57.011448,85.405472 
	C57.612038,90.635941 61.391411,88.500076 63.980476,89.179207 
	C63.983406,89.380013 63.993774,89.781532 63.993774,89.781532 
	C60.256187,90.062645 56.518597,90.343758 52.413357,90.463966 
z"/>
<path fill="#E48761" opacity="1.000000" stroke="none" 
	d="
M81.285172,77.401321 
	C80.162262,78.920013 79.039352,80.438705 77.522491,81.716362 
	C76.088478,80.305832 75.048401,79.136337 74.000275,77.573341 
	C73.957542,76.653969 73.922852,76.128105 74.008698,75.307693 
	C75.310860,73.264168 76.492477,71.515198 77.768036,70.209435 
	C78.421402,73.197227 76.580208,76.959511 81.285172,77.401321 
z"/>
<path fill="#CC736A" opacity="1.000000" stroke="none" 
	d="
M64.354889,89.773209 
	C63.993774,89.781532 63.983406,89.380013 63.993572,88.799973 
	C63.677959,86.550812 63.352180,84.881691 63.310120,83.023941 
	C65.035034,82.188950 66.476234,81.542587 67.898605,81.239365 
	C67.604630,82.827240 67.329475,84.071976 67.054321,85.316719 
	C68.702118,85.215149 70.349915,85.113579 72.340973,85.003906 
	C73.142044,85.002579 73.599846,85.009346 74.057655,85.016113 
	C70.943771,86.599037 67.829887,88.181961 64.354889,89.773209 
z"/>
<path fill="#4F6E8E" opacity="1.000000" stroke="none" 
	d="
M39.923347,40.411316 
	C39.057068,38.378677 38.190788,36.346043 36.977840,34.042381 
	C37.855099,32.843761 39.079029,31.916172 40.768143,31.262974 
	C42.191628,33.366951 43.149933,35.196537 43.916042,37.271431 
	C42.457012,38.481598 41.190182,39.446457 39.923347,40.411316 
z"/>
<path fill="#E37151" opacity="1.000000" stroke="none" 
	d="
M74.284859,84.964523 
	C73.599846,85.009346 73.142044,85.002579 72.194809,84.663376 
	C71.467773,82.885864 71.230148,81.440804 70.981964,79.713570 
	C70.946152,79.244865 70.920898,79.058327 70.931419,78.892906 
	C70.967194,78.914032 70.890717,78.946526 71.140572,78.860245 
	C71.581062,78.487633 71.771706,78.201317 71.971161,77.954865 
	C71.979980,77.994728 71.918999,77.940414 72.266830,77.963470 
	C73.079208,77.979973 73.543770,77.973412 74.008324,77.966850 
	C75.048401,79.136337 76.088478,80.305832 77.227753,81.849190 
	C77.326958,82.223053 77.285034,82.198448 76.984558,82.242355 
	C76.519623,82.601402 76.355156,82.916550 76.190697,83.231697 
	C76.190697,83.231697 76.112274,83.165565 75.882652,83.215057 
	C75.453438,83.572166 75.253845,83.879791 75.054253,84.187408 
	C74.991608,84.517509 74.810875,84.759346 74.284859,84.964523 
z"/>
<path fill="#EE8C56" opacity="1.000000" stroke="none" 
	d="
M81.278290,77.364693 
	C76.580208,76.959511 78.421402,73.197227 77.788277,70.222473 
	C77.714584,69.792313 77.758545,69.787224 78.064682,69.859207 
	C78.577957,69.952950 78.785103,69.974716 79.296555,70.130371 
	C81.430580,71.249741 83.290672,72.777061 84.907639,69.966812 
	C84.907639,69.966812 85.147255,70.095200 85.273918,70.147209 
	C85.188850,70.937874 84.977112,71.676529 84.234573,72.795502 
	C83.218941,74.199081 82.734116,75.222336 82.249283,76.245583 
	C82.249283,76.245583 82.143234,76.209190 81.915741,76.248306 
	C81.536278,76.613136 81.384308,76.938866 81.232338,77.264587 
	C81.232338,77.264587 81.271408,77.328064 81.278290,77.364693 
z"/>
<path fill="#614F7C" opacity="1.000000" stroke="none" 
	d="
M35.409538,70.872139 
	C34.026104,72.527908 32.642670,74.183678 30.945721,76.030457 
	C30.632204,76.221474 30.267065,76.230919 30.129427,76.110786 
	C29.700151,74.245956 29.408512,72.501259 29.450233,70.334671 
	C31.035900,68.641396 32.288208,67.370010 33.722824,66.418045 
	C34.406597,68.115677 34.908066,69.493912 35.409538,70.872139 
z"/>
<path fill="#5E7F95" opacity="1.000000" stroke="none" 
	d="
M44.108238,37.026127 
	C43.149933,35.196537 42.191628,33.366951 41.094757,31.206524 
	C42.026680,30.555567 43.097168,30.235451 44.522594,29.909706 
	C45.277332,31.398071 45.677128,32.892063 45.964256,35.042397 
	C45.270473,36.141197 44.689358,36.583664 44.108238,37.026127 
z"/>
<path fill="#E48761" opacity="1.000000" stroke="none" 
	d="
M82.515915,76.134735 
	C82.734116,75.222336 83.218941,74.199081 83.981949,73.086639 
	C83.767593,74.006264 83.275063,75.015083 82.515915,76.134735 
z"/>
<path fill="#E9BB82" opacity="1.000000" stroke="none" 
	d="
M80.814606,38.717049 
	C80.244095,38.541687 79.654442,38.060200 79.044975,37.262157 
	C79.615257,37.434040 80.205360,37.922478 80.814606,38.717049 
z"/>
<path fill="#E9BB82" opacity="1.000000" stroke="none" 
	d="
M76.989021,34.671284 
	C76.395836,34.577309 75.735687,34.180576 75.021599,33.476006 
	C75.619133,33.568287 76.270592,33.968407 76.989021,34.671284 
z"/>
<path fill="#E9BB82" opacity="1.000000" stroke="none" 
	d="
M82.084869,40.658272 
	C81.877419,40.702621 81.561737,40.490414 81.188232,39.986012 
	C81.412491,39.929783 81.694572,40.165749 82.084869,40.658272 
z"/>
<path fill="#B3646F" opacity="1.000000" stroke="none" 
	d="
M50.143738,90.126411 
	C50.231785,90.003510 50.446442,90.009048 50.979660,90.073761 
	C50.955597,90.173569 50.612972,90.214211 50.143738,90.126411 
z"/>
<path fill="#D47360" opacity="1.000000" stroke="none" 
	d="
M75.321243,84.098763 
	C75.253845,83.879791 75.453438,83.572166 75.928360,83.191788 
	C75.998535,83.416046 75.793388,83.713081 75.321243,84.098763 
z"/>
<path fill="#E48761" opacity="1.000000" stroke="none" 
	d="
M76.447830,83.156525 
	C76.355156,82.916550 76.519623,82.601402 76.960823,82.237648 
	C77.060028,82.486481 76.882492,82.783913 76.447830,83.156525 
z"/>
<path fill="#E48761" opacity="1.000000" stroke="none" 
	d="
M81.505089,77.200981 
	C81.384308,76.938866 81.536278,76.613136 81.966248,76.223999 
	C82.088783,76.486176 81.933311,76.811775 81.505089,77.200981 
z"/>
<path fill="#FBF8F7" opacity="1.000000" stroke="none" 
	d="
M43.916042,37.271431 
	C44.689358,36.583664 45.270473,36.141197 45.990814,35.453781 
	C48.484787,34.771778 50.839535,34.334721 53.583191,33.797974 
	C55.690277,33.764637 57.408451,33.830986 59.556374,33.865067 
	C62.074959,34.552502 64.163795,35.272209 66.614662,36.058594 
	C67.097542,36.413876 67.292938,36.637302 67.852829,37.142899 
	C68.425018,37.675583 68.707275,37.860920 68.989525,38.046253 
	C68.989525,38.046253 69.001289,37.996880 69.083328,38.226498 
	C69.368660,38.748962 69.648521,38.898289 70.004944,38.904102 
	C71.472862,40.508629 72.940781,42.113155 74.684494,43.892311 
	C75.006859,44.405785 75.170197,44.673328 75.823898,45.256065 
	C76.766548,46.770733 77.335609,47.898911 77.904678,49.027088 
	C78.316650,54.079304 78.728630,59.131516 79.055740,64.924339 
	C78.930031,66.127892 78.889191,66.590843 78.770355,67.152710 
	C78.692352,67.251625 78.799461,67.479675 78.549339,67.700455 
	C78.118996,68.543236 77.938774,69.165230 77.758545,69.787224 
	C77.758545,69.787224 77.714584,69.792313 77.694336,69.779266 
	C76.492477,71.515198 75.310860,73.264168 73.745956,75.480713 
	C72.881454,76.612328 72.400230,77.276375 71.918999,77.940414 
	C71.918999,77.940414 71.979980,77.994728 71.716415,78.033653 
	C71.265465,78.363892 71.078094,78.655212 70.890717,78.946526 
	C70.890717,78.946526 70.967194,78.914032 70.682594,78.952377 
	C70.197250,79.253235 69.996506,79.515762 69.825302,79.827515 
	C69.854843,79.876740 69.881088,79.764954 69.583542,79.806755 
	C68.827110,80.210915 68.368225,80.573273 67.929413,80.933128 
	C67.949486,80.930626 67.917435,80.896233 67.917435,80.896225 
	C66.476234,81.542587 65.035034,82.188950 63.027840,83.001709 
	C61.958649,83.387680 61.455456,83.607254 60.577133,83.804428 
	C59.462063,83.901711 58.722126,84.021378 57.565445,84.082047 
	C54.220928,83.629745 51.293152,83.236458 48.365379,82.843170 
	C45.530651,80.846008 42.695923,78.848846 39.483871,76.437851 
	C38.748096,75.679039 38.389641,75.334061 38.031189,74.989082 
	C37.303062,73.776688 36.574940,72.564293 35.628178,71.112015 
	C34.908066,69.493912 34.406597,68.115677 33.714951,66.078186 
	C33.273891,64.273354 33.023010,63.127773 32.810143,61.554321 
	C32.819370,59.408546 32.790577,57.690639 32.862770,55.742844 
	C32.936165,55.347836 32.908569,55.182728 32.999344,54.645561 
	C33.648796,52.245434 34.179874,50.217365 34.710953,48.189297 
	C36.337486,45.804474 37.964020,43.419651 39.756950,40.723072 
	C41.190182,39.446457 42.457012,38.481598 43.916042,37.271431 
M68.592667,74.973541 
	C68.771729,74.661041 68.950790,74.348549 69.644424,73.588272 
	C70.603134,72.523483 72.195747,71.551842 72.369148,70.371674 
	C72.617439,68.681725 71.828972,66.839455 71.483185,65.062218 
	C69.956009,65.571297 68.428825,66.080383 66.322601,66.969833 
	C65.575684,67.474739 64.828758,67.979645 63.408028,68.367126 
	C59.790688,73.022034 54.667706,71.914566 49.395519,71.579987 
	C48.668495,71.031250 47.941475,70.482506 47.049206,69.310738 
	C46.400982,68.496063 45.752758,67.681381 45.072811,66.949249 
	C45.072811,66.949249 45.160980,66.942429 45.090286,66.139793 
	C43.239635,61.058186 44.711910,56.517746 47.340900,52.210876 
	C47.340900,52.210876 47.310833,52.243092 48.042431,52.445362 
	C52.939941,48.966751 58.134727,48.985283 63.095863,51.280869 
	C65.691376,49.565781 59.275902,47.207027 64.458244,45.979351 
	C64.458244,45.979351 64.929268,46.030304 65.044075,46.737400 
	C66.706802,48.796089 66.857468,52.599625 71.628517,51.675087 
	C74.023506,49.216816 72.828026,47.147591 70.672020,44.578751 
	C69.750130,43.735420 68.828247,42.892090 67.670891,41.357353 
	C64.761169,40.517822 61.851452,39.678291 58.258369,38.525391 
	C55.157970,39.285339 52.057568,40.045292 48.236515,40.903687 
	C46.451969,41.914528 44.667423,42.925365 42.263084,44.198814 
	C41.165783,46.129467 40.068481,48.060120 38.495098,50.585018 
	C36.477070,56.139126 35.669647,61.650608 39.580185,67.500084 
	C40.876701,73.331108 44.914089,76.529610 50.754627,78.906853 
	C54.873253,78.633339 58.991879,78.359825 63.032299,78.112709 
	C63.032299,78.112709 63.077572,78.181725 63.555542,78.159554 
	C63.555542,78.159554 63.975147,77.929604 64.611748,77.896080 
	C65.431114,77.277176 66.250481,76.658272 67.010559,76.004997 
	C67.010559,76.004997 67.018768,76.073036 67.535538,75.913757 
	C67.731697,75.625305 67.927849,75.336853 68.037689,75.040886 
	C68.037689,75.040886 68.047493,75.126976 68.592667,74.973541 
z"/>
<path fill="#FA9042" opacity="1.000000" stroke="none" 
	d="
M78.799461,67.479675 
	C78.799461,67.479675 78.692352,67.251625 79.045334,66.994064 
	C79.603661,66.159348 79.809021,65.582176 80.014381,65.005013 
	C80.933395,63.467384 81.852417,61.929752 82.869751,60.227623 
	C88.826683,62.000202 84.420853,66.191170 84.936760,69.558815 
	C83.290672,72.777061 81.430580,71.249741 79.291275,69.710373 
	C78.920952,68.597549 78.860207,68.038612 78.799461,67.479675 
z"/>
<path fill="#FCAE4F" opacity="1.000000" stroke="none" 
	d="
M78.254868,49.065907 
	C77.335609,47.898911 76.766548,46.770733 76.048264,45.343365 
	C79.698471,41.987926 81.641815,42.343674 83.684372,46.577667 
	C84.242043,47.733669 84.525978,49.021725 84.987167,50.616116 
	C82.530304,51.603436 80.114014,51.907997 78.254868,49.065907 
z"/>
<path fill="#EE8C56" opacity="1.000000" stroke="none" 
	d="
M79.814209,65.006470 
	C79.809021,65.582176 79.603661,66.159348 79.123329,66.895149 
	C78.889191,66.590843 78.930031,66.127892 79.092262,65.336853 
	C79.213661,65.008751 79.614029,65.007927 79.814209,65.006470 
z"/>
<path fill="#404B7F" opacity="1.000000" stroke="none" 
	d="
M32.761780,55.972736 
	C32.790577,57.690639 32.819370,59.408546 32.490715,61.598839 
	C30.759930,63.042831 29.386595,64.014435 28.013260,64.986038 
	C25.677092,59.006538 27.831205,53.681606 30.713848,48.207756 
	C31.927343,48.025448 32.854973,48.056587 34.246777,48.138512 
	C34.179874,50.217365 33.648796,52.245434 32.847557,54.721741 
	C32.514370,55.262955 32.377098,55.391537 32.401562,55.442543 
	C32.492931,55.633041 32.637295,55.798122 32.761780,55.972736 
z"/>
<path fill="#54507E" opacity="1.000000" stroke="none" 
	d="
M28.012909,65.375465 
	C29.386595,64.014435 30.759930,63.042831 32.452698,62.026711 
	C33.023010,63.127773 33.273891,64.273354 33.532646,65.758781 
	C32.288208,67.370010 31.035900,68.641396 29.413612,69.955658 
	C28.699942,68.587318 28.356253,67.176102 28.012909,65.375465 
z"/>
<path fill="#A35A6F" opacity="1.000000" stroke="none" 
	d="
M47.987347,82.888077 
	C51.293152,83.236458 54.220928,83.629745 57.570873,84.296440 
	C57.993042,84.569847 58.001526,84.998779 57.753174,85.001556 
	C57.504818,85.004333 57.008114,85.010658 57.008114,85.010658 
	C54.781540,85.187820 51.712315,84.039192 52.005013,88.591782 
	C49.941376,87.855492 47.882500,86.714951 45.823624,85.574409 
	C46.418854,84.693932 47.014084,83.813461 47.987347,82.888077 
z"/>
<path fill="#7E4C74" opacity="1.000000" stroke="none" 
	d="
M37.668449,75.032349 
	C38.389641,75.334061 38.748096,75.679039 39.180527,76.268417 
	C39.172199,78.367737 39.089901,80.222649 39.007229,82.536842 
	C34.055828,79.055328 33.868477,78.183029 37.668449,75.032349 
z"/>
<path fill="#C8B28D" opacity="1.000000" stroke="none" 
	d="
M69.880676,38.701481 
	C69.648521,38.898289 69.368660,38.748962 69.059052,38.233917 
	C69.274696,38.084953 69.542587,38.247334 69.880676,38.701481 
z"/>
<path fill="#C8B28D" opacity="1.000000" stroke="none" 
	d="
M68.886230,37.813576 
	C68.707275,37.860920 68.425018,37.675583 68.053566,37.247284 
	C68.237221,37.196510 68.510086,37.388702 68.886230,37.813576 
z"/>
<path fill="#C16063" opacity="1.000000" stroke="none" 
	d="
M57.011448,85.405472 
	C57.008114,85.010658 57.504818,85.004333 58.100395,84.999985 
	C59.448071,84.606026 60.200169,84.216423 60.952267,83.826828 
	C61.455456,83.607254 61.958649,83.387680 62.744122,83.190346 
	C63.352180,84.881691 63.677959,86.550812 63.990646,88.599167 
	C61.391411,88.500076 57.612038,90.635941 57.011448,85.405472 
z"/>
<path fill="#D47360" opacity="1.000000" stroke="none" 
	d="
M72.266830,77.963470 
	C72.400230,77.276375 72.881454,76.612328 73.625420,75.775261 
	C73.922852,76.128105 73.957542,76.653969 74.000275,77.573341 
	C73.543770,77.973412 73.079208,77.979973 72.266830,77.963470 
z"/>
<path fill="#D47360" opacity="1.000000" stroke="none" 
	d="
M70.992523,79.995735 
	C71.230148,81.440804 71.467773,82.885864 71.851547,84.671471 
	C70.349915,85.113579 68.702118,85.215149 67.054321,85.316719 
	C67.329475,84.071976 67.604630,82.827240 67.898605,81.239365 
	C67.917435,80.896233 67.949486,80.930626 68.250435,80.930595 
	C68.994621,80.542030 69.437851,80.153488 69.881088,79.764954 
	C69.881088,79.764954 69.854843,79.876740 70.121689,79.901810 
	C70.589867,79.949837 70.791191,79.972786 70.992523,79.995735 
z"/>
<path fill="#CC736A" opacity="1.000000" stroke="none" 
	d="
M70.981964,79.713570 
	C70.791191,79.972786 70.589867,79.949837 70.092148,79.852585 
	C69.996506,79.515762 70.197250,79.253235 70.646820,78.931244 
	C70.920898,79.058327 70.946152,79.244865 70.981964,79.713570 
z"/>
<path fill="#D47360" opacity="1.000000" stroke="none" 
	d="
M71.140572,78.860245 
	C71.078094,78.655212 71.265465,78.363892 71.707596,77.993790 
	C71.771706,78.201317 71.581062,78.487633 71.140572,78.860245 
z"/>
<path fill="#E48761" opacity="1.000000" stroke="none" 
	d="
M78.549339,67.700455 
	C78.860207,68.038612 78.920952,68.597549 78.986969,69.576492 
	C78.785103,69.974716 78.577957,69.952950 78.064682,69.859207 
	C77.938774,69.165230 78.118996,68.543236 78.549339,67.700455 
z"/>
<path fill="#F49750" opacity="1.000000" stroke="none" 
	d="
M66.901649,66.589470 
	C68.428825,66.080383 69.956009,65.571297 71.483185,65.062218 
	C71.828972,66.839455 72.617439,68.681725 72.369148,70.371674 
	C72.195747,71.551842 70.603134,72.523483 69.136581,73.914276 
	C68.434998,74.535843 68.241241,74.831413 68.047493,75.126976 
	C68.047493,75.126976 68.037689,75.040886 67.831146,75.135521 
	C67.422661,75.511116 67.220718,75.792076 67.018768,76.073036 
	C67.018768,76.073036 67.010559,76.004997 66.660324,76.006439 
	C64.562950,75.116852 62.815807,74.225807 61.327759,73.137642 
	C62.354191,72.592171 63.121529,72.243820 64.225693,71.787445 
	C65.342232,69.982773 66.121941,68.286125 66.901649,66.589470 
z"/>
<path fill="#855164" opacity="1.000000" stroke="none" 
	d="
M50.186005,78.542381 
	C44.914089,76.529610 40.876701,73.331108 39.423832,66.929932 
	C39.438118,61.900501 38.221714,57.044384 42.903820,54.153301 
	C42.993679,54.644962 43.023792,54.842091 42.997620,55.379478 
	C42.634769,56.815025 42.328194,57.910309 41.981754,59.233932 
	C41.941891,59.462276 41.941113,59.925869 41.724388,60.110928 
	C41.436905,60.834080 41.366146,61.372173 41.253311,62.222771 
	C41.447323,63.332012 41.683418,64.128746 41.932434,64.937088 
	C41.945351,64.948692 41.955429,64.947899 41.795700,65.050186 
	C41.750435,65.457153 41.864895,65.761826 41.984818,66.368652 
	C42.291096,67.172333 42.591923,67.673859 42.942814,68.521194 
	C45.333767,71.260460 47.674648,73.653915 50.034977,76.462524 
	C50.098282,77.432571 50.142143,77.987473 50.186005,78.542381 
z"/>
<path fill="#E9B784" opacity="1.000000" stroke="none" 
	d="
M63.995575,45.876801 
	C59.275902,47.207027 65.691376,49.565781 63.095863,51.280869 
	C58.134727,48.985283 52.939941,48.966751 47.689953,52.348110 
	C47.337475,52.250858 47.409576,52.170544 47.176041,51.829590 
	C46.752220,51.289391 46.561935,51.090149 46.096775,50.805191 
	C45.630894,50.700508 45.439884,50.681549 45.262733,50.517982 
	C45.276600,50.373379 45.166790,50.104393 45.431755,50.144669 
	C46.163052,49.928238 46.629391,49.671528 47.410973,49.386223 
	C51.823181,48.294380 55.920143,47.231133 60.300186,46.044464 
	C61.052612,44.948441 61.521961,43.975842 62.328018,43.000046 
	C63.113766,42.992268 63.562809,42.987686 64.006149,42.990326 
	C64.000450,42.997551 64.016190,42.993259 64.012299,43.354214 
	C64.004128,44.435711 63.999851,45.156258 63.995575,45.876801 
z"/>
<path fill="#404A6E" opacity="1.000000" stroke="none" 
	d="
M45.166790,50.104393 
	C45.166790,50.104393 45.276600,50.373379 45.098461,50.812202 
	C44.882915,51.469662 44.845509,51.688297 44.736378,52.082653 
	C44.664654,52.258369 44.662830,52.637947 44.463997,52.779392 
	C44.001007,53.142555 43.857212,53.425430 43.804955,53.763245 
	C43.776123,53.757019 43.717278,53.761299 43.496391,53.762512 
	C43.275509,53.763729 42.844074,53.858765 42.844074,53.858765 
	C38.221714,57.044384 39.438118,61.900501 39.170498,66.686798 
	C35.669647,61.650608 36.477070,56.139126 39.172569,50.289162 
	C41.622288,50.030331 43.394539,50.067360 45.166790,50.104393 
z"/>
<path fill="#58758A" opacity="1.000000" stroke="none" 
	d="
M61.991310,43.003239 
	C61.521961,43.975842 61.052612,44.948441 59.947121,45.832016 
	C56.542542,45.537323 53.774101,45.331650 50.797630,44.835938 
	C48.020695,44.342667 45.451786,44.139435 42.882881,43.936203 
	C44.667423,42.925365 46.451969,41.914528 49.006027,40.928986 
	C53.519402,41.593155 57.263256,42.232025 61.252132,42.911659 
	C61.497150,42.952423 61.991310,43.003239 61.991310,43.003239 
z"/>
<path fill="#46597A" opacity="1.000000" stroke="none" 
	d="
M42.572983,44.067513 
	C45.451786,44.139435 48.020695,44.342667 50.648048,45.121208 
	C49.502911,46.935959 48.299320,48.175392 47.095734,49.414825 
	C46.629391,49.671528 46.163052,49.928238 45.431755,50.144669 
	C43.394539,50.067360 41.622288,50.030331 39.410606,49.992035 
	C40.068481,48.060120 41.165783,46.129467 42.572983,44.067513 
z"/>
<path fill="#F6B565" opacity="1.000000" stroke="none" 
	d="
M67.906357,42.048759 
	C68.828247,42.892090 69.750130,43.735420 70.815178,45.283401 
	C70.955399,47.943707 70.952454,49.899357 70.949509,51.855011 
	C66.857468,52.599625 66.706802,48.796089 65.236679,46.222343 
	C64.958252,44.802612 64.487221,43.897938 64.016190,42.993259 
	C64.016190,42.993259 64.000450,42.997551 64.003456,42.743881 
	C64.006462,42.490215 64.003944,41.996941 64.001968,41.998470 
	C64.000000,42.000000 63.996906,42.004005 64.388588,42.002590 
	C65.822296,42.017036 66.864326,42.032898 67.906357,42.048759 
z"/>
<path fill="#B2B09E" opacity="1.000000" stroke="none" 
	d="
M61.007114,42.870895 
	C57.263256,42.232025 53.519402,41.593155 49.366356,40.879765 
	C52.057568,40.045292 55.157970,39.285339 58.641800,39.024426 
	C59.685860,40.639271 60.346489,41.755085 61.007114,42.870895 
z"/>
<path fill="#E58157" opacity="1.000000" stroke="none" 
	d="
M61.068668,73.334770 
	C62.815807,74.225807 64.562950,75.116852 66.689972,76.023628 
	C66.250481,76.658272 65.431114,77.277176 64.187027,77.759377 
	C63.534061,77.809021 63.305817,77.995369 63.077572,78.181725 
	C63.077572,78.181725 63.032299,78.112709 62.636078,78.071945 
	C59.497402,77.661667 56.754940,77.292145 54.076591,76.578659 
	C55.743385,75.532990 57.346066,74.831284 59.210625,74.007530 
	C60.004555,73.701904 60.536610,73.518333 61.068668,73.334770 
z"/>
<path fill="#E58157" opacity="1.000000" stroke="none" 
	d="
M50.015530,76.047379 
	C47.674648,73.653915 45.333767,71.260460 42.979500,68.123314 
	C42.975731,66.588089 42.985348,65.796539 42.997314,65.002670 
	C42.999668,65.000351 43.005005,64.995018 43.254036,65.157227 
	C44.055702,65.860428 44.608341,66.401428 45.160980,66.942429 
	C45.160980,66.942429 45.072811,66.949249 45.079254,67.254723 
	C45.795284,68.351387 46.504868,69.142578 47.214451,69.933769 
	C47.941475,70.482506 48.668495,71.031250 49.746109,72.005051 
	C50.393085,72.668655 50.689476,72.907196 51.018646,73.441246 
	C51.357311,74.470268 51.663200,75.203789 51.642708,75.944908 
	C50.882725,75.984138 50.449127,76.015755 50.015530,76.047379 
z"/>
<path fill="#975F66" opacity="1.000000" stroke="none" 
	d="
M50.985867,73.145737 
	C50.689476,72.907196 50.393085,72.668655 49.965309,72.171997 
	C54.667706,71.914566 59.790688,73.022034 63.719906,68.759430 
	C63.984146,70.066315 63.936504,70.980888 63.888870,71.895470 
	C63.121529,72.243820 62.354191,72.592171 61.327759,73.137642 
	C60.536610,73.518333 60.004555,73.701904 58.801544,73.978210 
	C55.749016,73.762550 53.367443,73.454147 50.985867,73.145737 
z"/>
<path fill="#AF686F" opacity="1.000000" stroke="none" 
	d="
M50.034977,76.462524 
	C50.449127,76.015755 50.882725,75.984138 51.817657,76.193703 
	C52.883488,76.597473 53.447983,76.760056 54.012478,76.922623 
	C56.754940,77.292145 59.497402,77.661667 62.675182,78.058754 
	C58.991879,78.359825 54.873253,78.633339 50.470314,78.724617 
	C50.142143,77.987473 50.098282,77.432571 50.034977,76.462524 
z"/>
<path fill="#D87F5C" opacity="1.000000" stroke="none" 
	d="
M45.125633,66.541107 
	C44.608341,66.401428 44.055702,65.860428 43.252579,64.754288 
	C42.675270,62.461296 42.348446,60.733444 42.021618,59.005592 
	C42.328194,57.910309 42.634769,56.815025 43.217537,55.234978 
	C43.568253,54.420578 43.642765,54.090939 43.717278,53.761299 
	C43.717278,53.761299 43.776123,53.757019 44.076969,53.703472 
	C44.472820,53.312599 44.567825,52.975273 44.662830,52.637947 
	C44.662830,52.637947 44.664654,52.258369 45.045292,52.002441 
	C45.741169,51.461308 46.056408,51.176109 46.371651,50.890907 
	C46.561935,51.090149 46.752220,51.289391 47.155533,51.796242 
	C47.368565,52.103848 47.365448,52.169689 47.365448,52.169689 
	C44.711910,56.517746 43.239635,61.058186 45.125633,66.541107 
z"/>
<path fill="#EAC087" opacity="1.000000" stroke="none" 
	d="
M61.252132,42.911659 
	C60.346489,41.755085 59.685860,40.639271 58.983482,39.181107 
	C61.851452,39.678291 64.761169,40.517822 67.788620,41.703056 
	C66.864326,42.032898 65.822296,42.017036 64.337219,41.862907 
	C63.808846,41.674717 63.723515,41.624794 63.638184,41.574871 
	C63.760101,41.715561 63.882023,41.856251 64.003944,41.996941 
	C64.003944,41.996941 64.006462,42.490215 64.009155,42.736660 
	C63.562809,42.987686 63.113766,42.992268 62.328018,43.000046 
	C61.991310,43.003239 61.497150,42.952423 61.252132,42.911659 
z"/>
<path fill="#EAC087" opacity="1.000000" stroke="none" 
	d="
M71.289017,51.765049 
	C70.952454,49.899357 70.955399,47.943707 70.940201,45.571701 
	C72.828026,47.147591 74.023506,49.216816 71.289017,51.765049 
z"/>
<path fill="#D87F5C" opacity="1.000000" stroke="none" 
	d="
M64.225693,71.787445 
	C63.936504,70.980888 63.984146,70.066315 64.056808,68.818138 
	C64.828758,67.979645 65.575684,67.474739 66.612122,66.779648 
	C66.121941,68.286125 65.342232,69.982773 64.225693,71.787445 
z"/>
<path fill="#EAC087" opacity="1.000000" stroke="none" 
	d="
M64.012299,43.354214 
	C64.487221,43.897938 64.958252,44.802612 65.179276,45.868797 
	C64.929268,46.030304 64.458244,45.979351 64.226913,45.928078 
	C63.999851,45.156258 64.004128,44.435711 64.012299,43.354214 
z"/>
<path fill="#D87F5C" opacity="1.000000" stroke="none" 
	d="
M47.131828,69.622253 
	C46.504868,69.142578 45.795284,68.351387 45.095116,67.213448 
	C45.752758,67.681381 46.400982,68.496063 47.131828,69.622253 
z"/>
<path fill="#B3646F" opacity="1.000000" stroke="none" 
	d="
M60.577133,83.804428 
	C60.200169,84.216423 59.448071,84.606026 58.348747,84.997208 
	C58.001526,84.998779 57.993042,84.569847 57.987614,84.355453 
	C58.722126,84.021378 59.462063,83.901711 60.577133,83.804428 
z"/>
<path fill="#CC736A" opacity="1.000000" stroke="none" 
	d="
M69.583542,79.806755 
	C69.437851,80.153488 68.994621,80.542030 68.230362,80.933098 
	C68.368225,80.573273 68.827110,80.210915 69.583542,79.806755 
z"/>
<path fill="#404A6E" opacity="1.000000" stroke="none" 
	d="
M47.353172,52.190285 
	C47.365448,52.169689 47.368565,52.103848 47.389069,52.137196 
	C47.409576,52.170544 47.337475,52.250858 47.324154,52.246975 
	C47.310833,52.243092 47.340900,52.210876 47.353172,52.190285 
z"/>
<path fill="#54507E" opacity="1.000000" stroke="none" 
	d="
M32.862770,55.742844 
	C32.637295,55.798122 32.492931,55.633041 32.401562,55.442543 
	C32.377098,55.391537 32.514370,55.262955 32.729179,55.093803 
	C32.908569,55.182728 32.936165,55.347836 32.862770,55.742844 
z"/>
<path fill="#E58157" opacity="1.000000" stroke="none" 
	d="
M67.277153,75.993393 
	C67.220718,75.792076 67.422661,75.511116 67.874306,75.139282 
	C67.927849,75.336853 67.731697,75.625305 67.277153,75.993393 
z"/>
<path fill="#AF686F" opacity="1.000000" stroke="none" 
	d="
M63.316559,78.170639 
	C63.305817,77.995369 63.534061,77.809021 63.868729,77.776138 
	C63.975147,77.929604 63.555542,78.159554 63.316559,78.170639 
z"/>
<path fill="#E58157" opacity="1.000000" stroke="none" 
	d="
M68.320084,75.050262 
	C68.241241,74.831413 68.434998,74.535843 68.879303,74.138168 
	C68.950790,74.348549 68.771729,74.661041 68.320084,75.050262 
z"/>
<path fill="#E58157" opacity="1.000000" stroke="none" 
	d="
M41.981754,59.233932 
	C42.348446,60.733444 42.675270,62.461296 43.003551,64.592087 
	C43.005005,64.995018 42.999668,65.000351 42.727924,64.990356 
	C42.277290,64.962067 42.098404,64.943771 41.919514,64.925484 
	C41.683418,64.128746 41.447323,63.332012 41.443123,62.032639 
	C41.763718,60.995289 41.852413,60.460579 41.941113,59.925869 
	C41.941113,59.925869 41.941891,59.462276 41.981754,59.233932 
z"/>
<path fill="#D87F5C" opacity="1.000000" stroke="none" 
	d="
M41.932434,64.937088 
	C42.098404,64.943771 42.277290,64.962067 42.725571,64.992676 
	C42.985348,65.796539 42.975731,66.588089 42.929428,67.777512 
	C42.591923,67.673859 42.291096,67.172333 41.982288,66.088623 
	C41.968014,65.320267 41.961720,65.134079 41.955429,64.947899 
	C41.955429,64.947899 41.945351,64.948692 41.932434,64.937088 
z"/>
<path fill="#D87F5C" opacity="1.000000" stroke="none" 
	d="
M41.724388,60.110928 
	C41.852413,60.460579 41.763718,60.995289 41.485207,61.720131 
	C41.366146,61.372173 41.436905,60.834080 41.724388,60.110928 
z"/>
<path fill="#E58157" opacity="1.000000" stroke="none" 
	d="
M41.795700,65.050186 
	C41.961720,65.134079 41.968014,65.320267 41.976830,65.786476 
	C41.864895,65.761826 41.750435,65.457153 41.795700,65.050186 
z"/>
<path fill="#A96A57" opacity="1.000000" stroke="none" 
	d="
M43.496391,53.762512 
	C43.642765,54.090939 43.568253,54.420578 43.273819,54.894714 
	C43.023792,54.842091 42.993679,54.644962 42.903820,54.153301 
	C42.844074,53.858765 43.275509,53.763729 43.496391,53.762512 
z"/>
<path fill="#A96A57" opacity="1.000000" stroke="none" 
	d="
M47.410973,49.386223 
	C48.299320,48.175392 49.502911,46.935959 50.856079,45.411251 
	C53.774101,45.331650 56.542542,45.537323 59.664043,45.955444 
	C55.920143,47.231133 51.823181,48.294380 47.410973,49.386223 
z"/>
<path fill="#A96A57" opacity="1.000000" stroke="none" 
	d="
M46.096779,50.805191 
	C46.056408,51.176109 45.741169,51.461308 45.117016,51.826721 
	C44.845509,51.688297 44.882915,51.469662 45.084595,50.956802 
	C45.439884,50.681549 45.630894,50.700508 46.096779,50.805191 
z"/>
<path fill="#A96A57" opacity="1.000000" stroke="none" 
	d="
M44.463997,52.779392 
	C44.567825,52.975273 44.472820,53.312599 44.105804,53.709694 
	C43.857212,53.425430 44.001007,53.142555 44.463997,52.779392 
z"/>
<path fill="#D87F5C" opacity="1.000000" stroke="none" 
	d="
M54.076591,76.578659 
	C53.447983,76.760056 52.883488,76.597473 52.144043,76.186096 
	C51.663200,75.203789 51.357311,74.470268 51.018646,73.441246 
	C53.367443,73.454147 55.749016,73.762550 58.539673,74.100266 
	C57.346066,74.831284 55.743385,75.532990 54.076591,76.578659 
z"/>
<path fill="#F6B565" opacity="1.000000" stroke="none" 
	d="
M64.001968,41.998470 
	C63.882023,41.856251 63.760101,41.715561 63.638184,41.574871 
	C63.723515,41.624794 63.808846,41.674717 63.945541,41.864323 
	C63.996906,42.004005 64.000000,42.000000 64.001968,41.998470 
z"/>
</svg>